{
    "asset" : {
        "generator" : "Khronos glTF Blender I/O v1.2.20",
        "version" : "2.0"
    },
    "scene" : 0,
    "scenes" : [
        {
            "nodes" : [
                0,
                1,
                2,
                3,
                4,
                5,
                6
            ],
            "name" : "Scene"
        }
    ],
    "nodes" : [
        {
            "mesh" : 0,
            "translation" : [
                1.746410608291626,
                0.007830634713172913,
                4.406438827514648
            ],
            "scale" : [
                0.015996091067790985,
                0.015996091067790985,
                0.015996091067790985
            ],
            "name" : "1.5"
        },
        {
            "mesh" : 1,
            "translation" : [
                3.8812055587768555,
                0.02290581539273262,
                3.5337390899658203
            ],
            "scale" : [
                0.011029273271560669,
                0.011029273271560669,
                0.011029273271560669
            ],
            "name" : "1.4"
        },
        {
            "mesh" : 2,
            "translation" : [
                2.6136436462402344,
                0.07315611094236374,
                0.2875407934188843
            ],
            "scale" : [
                0.01696845144033432,
                0.01696845144033432,
                0.01696845144033432
            ],
            "name" : "1.3"
        },
        {
            "mesh" : 3,
            "translation" : [
                -0.2409067153930664,
                0.08017440140247345,
                5.798268795013428
            ],
            "scale" : [
                0.017742455005645752,
                0.017742455005645752,
                0.017742455005645752
            ],
            "name" : "1.2"
        },
        {
            "mesh" : 4,
            "translation" : [
                0.18173432350158691,
                0.08708333969116211,
                0.03553277254104614
            ],
            "scale" : [
                0.020075827836990356,
                0.020075827836990356,
                0.020075827836990356
            ],
            "name" : "1.000"
        },
        {
            "translation" : [
                4.076245307922363,
                5.903861999511719,
                -1.0054539442062378
            ],
            "name" : "Lamp",
            "rotation" : [
                0.16907575726509094,
                0.7558803558349609,
                -0.27217137813568115,
                0.570947527885437
            ]
        },
        {
            "translation" : [
                7.481131553649902,
                5.34366512298584,
                6.5076398849487305
            ],
            "name" : "Camera",
            "rotation" : [
                0.483536034822464,
                0.33687159419059753,
                -0.20870360732078552,
                0.7804827094078064
            ]
        }
    ],
    "animations" : [
        {
            "channels" : [
                {
                    "sampler" : 0,
                    "target" : {
                        "node" : 0,
                        "path" : "rotation"
                    }
                },
                {
                    "sampler" : 1,
                    "target" : {
                        "node" : 0,
                        "path" : "scale"
                    }
                },
                {
                    "sampler" : 2,
                    "target" : {
                        "node" : 0,
                        "path" : "translation"
                    }
                }
            ],
            "name" : "1.5Action",
            "samplers" : [
                {
                    "output" : 7,
                    "input" : 6,
                    "interpolation" : "LINEAR"
                },
                {
                    "output" : 8,
                    "input" : 6,
                    "interpolation" : "LINEAR"
                },
                {
                    "output" : 9,
                    "input" : 6,
                    "interpolation" : "LINEAR"
                }
            ]
        },
        {
            "channels" : [
                {
                    "sampler" : 0,
                    "target" : {
                        "node" : 1,
                        "path" : "rotation"
                    }
                },
                {
                    "sampler" : 1,
                    "target" : {
                        "node" : 1,
                        "path" : "scale"
                    }
                },
                {
                    "sampler" : 2,
                    "target" : {
                        "node" : 1,
                        "path" : "translation"
                    }
                }
            ],
            "name" : "1.4Action",
            "samplers" : [
                {
                    "output" : 11,
                    "input" : 10,
                    "interpolation" : "LINEAR"
                },
                {
                    "output" : 12,
                    "input" : 10,
                    "interpolation" : "LINEAR"
                },
                {
                    "output" : 13,
                    "input" : 10,
                    "interpolation" : "LINEAR"
                }
            ]
        },
        {
            "channels" : [
                {
                    "sampler" : 0,
                    "target" : {
                        "node" : 2,
                        "path" : "rotation"
                    }
                },
                {
                    "sampler" : 1,
                    "target" : {
                        "node" : 2,
                        "path" : "scale"
                    }
                },
                {
                    "sampler" : 2,
                    "target" : {
                        "node" : 2,
                        "path" : "translation"
                    }
                }
            ],
            "name" : "1.3Action",
            "samplers" : [
                {
                    "output" : 14,
                    "input" : 10,
                    "interpolation" : "LINEAR"
                },
                {
                    "output" : 15,
                    "input" : 10,
                    "interpolation" : "LINEAR"
                },
                {
                    "output" : 16,
                    "input" : 10,
                    "interpolation" : "LINEAR"
                }
            ]
        },
        {
            "channels" : [
                {
                    "sampler" : 0,
                    "target" : {
                        "node" : 3,
                        "path" : "rotation"
                    }
                },
                {
                    "sampler" : 1,
                    "target" : {
                        "node" : 3,
                        "path" : "scale"
                    }
                },
                {
                    "sampler" : 2,
                    "target" : {
                        "node" : 3,
                        "path" : "translation"
                    }
                }
            ],
            "name" : "1.2Action",
            "samplers" : [
                {
                    "output" : 18,
                    "input" : 17,
                    "interpolation" : "LINEAR"
                },
                {
                    "output" : 19,
                    "input" : 17,
                    "interpolation" : "LINEAR"
                },
                {
                    "output" : 20,
                    "input" : 17,
                    "interpolation" : "LINEAR"
                }
            ]
        },
        {
            "channels" : [
                {
                    "sampler" : 0,
                    "target" : {
                        "node" : 4,
                        "path" : "rotation"
                    }
                },
                {
                    "sampler" : 1,
                    "target" : {
                        "node" : 4,
                        "path" : "scale"
                    }
                },
                {
                    "sampler" : 2,
                    "target" : {
                        "node" : 4,
                        "path" : "translation"
                    }
                }
            ],
            "name" : "1.000Action",
            "samplers" : [
                {
                    "output" : 22,
                    "input" : 21,
                    "interpolation" : "LINEAR"
                },
                {
                    "output" : 23,
                    "input" : 21,
                    "interpolation" : "LINEAR"
                },
                {
                    "output" : 24,
                    "input" : 21,
                    "interpolation" : "LINEAR"
                }
            ]
        }
    ],
    "materials" : [
        {
            "pbrMetallicRoughness" : {
                "baseColorTexture" : {
                    "index" : 0,
                    "texCoord" : 0
                }
            },
            "name" : "1.5"
        },
        {
            "pbrMetallicRoughness" : {
                "baseColorTexture" : {
                    "index" : 1,
                    "texCoord" : 0
                }
            },
            "name" : "1.4"
        },
        {
            "pbrMetallicRoughness" : {
                "baseColorTexture" : {
                    "index" : 2,
                    "texCoord" : 0
                }
            },
            "name" : "1.3"
        },
        {
            "pbrMetallicRoughness" : {
                "baseColorTexture" : {
                    "index" : 3,
                    "texCoord" : 0
                }
            },
            "name" : "1.2"
        },
        {
            "pbrMetallicRoughness" : {
                "baseColorTexture" : {
                    "index" : 4,
                    "texCoord" : 0
                }
            },
            "name" : "Material.003"
        }
    ],
    "meshes" : [
        {
            "primitives" : [
                {
                    "attributes" : {
                        "POSITION" : 0
                    },
                    "material" : 0,
                    "indices" : 1
                }
            ],
            "name" : "1.5"
        },
        {
            "primitives" : [
                {
                    "attributes" : {
                        "POSITION" : 2
                    },
                    "material" : 1,
                    "indices" : 1
                }
            ],
            "name" : "1.4"
        },
        {
            "primitives" : [
                {
                    "attributes" : {
                        "POSITION" : 3
                    },
                    "material" : 2,
                    "indices" : 1
                }
            ],
            "name" : "1.3"
        },
        {
            "primitives" : [
                {
                    "attributes" : {
                        "POSITION" : 4
                    },
                    "material" : 3,
                    "indices" : 1
                }
            ],
            "name" : "1.2"
        },
        {
            "primitives" : [
                {
                    "attributes" : {
                        "POSITION" : 5
                    },
                    "material" : 4,
                    "indices" : 1
                }
            ],
            "name" : "1.000"
        }
    ],
    "textures" : [
        {
            "sampler" : 0,
            "source" : 0
        },
        {
            "sampler" : 1,
            "source" : 1
        },
        {
            "sampler" : 2,
            "source" : 2
        },
        {
            "sampler" : 3,
            "source" : 3
        },
        {
            "sampler" : 4,
            "source" : 4
        }
    ],
    "images" : [
        {
            "mimeType" : "image/jpeg",
            "bufferView" : 2,
            "name" : "1.5.png"
        },
        {
            "mimeType" : "image/jpeg",
            "bufferView" : 4,
            "name" : "1.4.png"
        },
        {
            "mimeType" : "image/jpeg",
            "bufferView" : 6,
            "name" : "1.3.png"
        },
        {
            "mimeType" : "image/jpeg",
            "bufferView" : 8,
            "name" : "1.2.png"
        },
        {
            "mimeType" : "image/jpeg",
            "bufferView" : 10,
            "name" : "1.1.png"
        }
    ],
    "accessors" : [
        {
            "count" : 4,
            "componentType" : 5126,
            "min" : [
                -0.3881118893623352,
                0,
                -0.5
            ],
            "max" : [
                0.3881118893623352,
                0,
                0.5
            ],
            "bufferView" : 0,
            "type" : "VEC3"
        },
        {
            "bufferView" : 1,
            "count" : 6,
            "componentType" : 5123,
            "type" : "SCALAR"
        },
        {
            "count" : 4,
            "componentType" : 5126,
            "min" : [
                -0.5271493196487427,
                0,
                -0.5
            ],
            "max" : [
                0.5271493196487427,
                0,
                0.5
            ],
            "bufferView" : 3,
            "type" : "VEC3"
        },
        {
            "count" : 4,
            "componentType" : 5126,
            "min" : [
                -0.4754098355770111,
                0,
                -0.5
            ],
            "max" : [
                0.4754098355770111,
                0,
                0.5
            ],
            "bufferView" : 5,
            "type" : "VEC3"
        },
        {
            "count" : 4,
            "componentType" : 5126,
            "min" : [
                -0.453125,
                0,
                -0.5
            ],
            "max" : [
                0.453125,
                0,
                0.5
            ],
            "bufferView" : 7,
            "type" : "VEC3"
        },
        {
            "count" : 4,
            "componentType" : 5126,
            "min" : [
                -1.376344084739685,
                0,
                -0.5
            ],
            "max" : [
                1.376344084739685,
                0,
                0.5
            ],
            "bufferView" : 9,
            "type" : "VEC3"
        },
        {
            "count" : 81,
            "componentType" : 5126,
            "min" : [
                5
            ],
            "max" : [
                8.333333333333334
            ],
            "bufferView" : 11,
            "type" : "SCALAR"
        },
        {
            "bufferView" : 12,
            "count" : 81,
            "componentType" : 5126,
            "type" : "VEC4"
        },
        {
            "bufferView" : 13,
            "count" : 81,
            "componentType" : 5126,
            "type" : "VEC3"
        },
        {
            "bufferView" : 14,
            "count" : 81,
            "componentType" : 5126,
            "type" : "VEC3"
        },
        {
            "count" : 141,
            "componentType" : 5126,
            "min" : [
                2.5
            ],
            "max" : [
                8.333333333333334
            ],
            "bufferView" : 15,
            "type" : "SCALAR"
        },
        {
            "bufferView" : 16,
            "count" : 141,
            "componentType" : 5126,
            "type" : "VEC4"
        },
        {
            "bufferView" : 17,
            "count" : 141,
            "componentType" : 5126,
            "type" : "VEC3"
        },
        {
            "bufferView" : 18,
            "count" : 141,
            "componentType" : 5126,
            "type" : "VEC3"
        },
        {
            "bufferView" : 19,
            "count" : 141,
            "componentType" : 5126,
            "type" : "VEC4"
        },
        {
            "bufferView" : 20,
            "count" : 141,
            "componentType" : 5126,
            "type" : "VEC3"
        },
        {
            "bufferView" : 21,
            "count" : 141,
            "componentType" : 5126,
            "type" : "VEC3"
        },
        {
            "count" : 171,
            "componentType" : 5126,
            "min" : [
                1.25
            ],
            "max" : [
                8.333333333333334
            ],
            "bufferView" : 22,
            "type" : "SCALAR"
        },
        {
            "bufferView" : 23,
            "count" : 171,
            "componentType" : 5126,
            "type" : "VEC4"
        },
        {
            "bufferView" : 24,
            "count" : 171,
            "componentType" : 5126,
            "type" : "VEC3"
        },
        {
            "bufferView" : 25,
            "count" : 171,
            "componentType" : 5126,
            "type" : "VEC3"
        },
        {
            "count" : 200,
            "componentType" : 5126,
            "min" : [
                0.041666666666666664
            ],
            "max" : [
                8.333333333333334
            ],
            "bufferView" : 26,
            "type" : "SCALAR"
        },
        {
            "bufferView" : 27,
            "count" : 200,
            "componentType" : 5126,
            "type" : "VEC4"
        },
        {
            "bufferView" : 28,
            "count" : 200,
            "componentType" : 5126,
            "type" : "VEC3"
        },
        {
            "bufferView" : 29,
            "count" : 200,
            "componentType" : 5126,
            "type" : "VEC3"
        }
    ],
    "bufferViews" : [
        {
            "buffer" : 0,
            "byteLength" : 48,
            "byteOffset" : 0
        },
        {
            "buffer" : 0,
            "byteLength" : 12,
            "byteOffset" : 48
        },
        {
            "buffer" : 0,
            "byteLength" : 3636,
            "byteOffset" : 60
        },
        {
            "buffer" : 0,
            "byteLength" : 48,
            "byteOffset" : 3696
        },
        {
            "buffer" : 0,
            "byteLength" : 5407,
            "byteOffset" : 3744
        },
        {
            "buffer" : 0,
            "byteLength" : 48,
            "byteOffset" : 9152
        },
        {
            "buffer" : 0,
            "byteLength" : 19270,
            "byteOffset" : 9200
        },
        {
            "buffer" : 0,
            "byteLength" : 48,
            "byteOffset" : 28472
        },
        {
            "buffer" : 0,
            "byteLength" : 9428,
            "byteOffset" : 28520
        },
        {
            "buffer" : 0,
            "byteLength" : 48,
            "byteOffset" : 37948
        },
        {
            "buffer" : 0,
            "byteLength" : 8652,
            "byteOffset" : 37996
        },
        {
            "buffer" : 0,
            "byteLength" : 324,
            "byteOffset" : 46648
        },
        {
            "buffer" : 0,
            "byteLength" : 1296,
            "byteOffset" : 46972
        },
        {
            "buffer" : 0,
            "byteLength" : 972,
            "byteOffset" : 48268
        },
        {
            "buffer" : 0,
            "byteLength" : 972,
            "byteOffset" : 49240
        },
        {
            "buffer" : 0,
            "byteLength" : 564,
            "byteOffset" : 50212
        },
        {
            "buffer" : 0,
            "byteLength" : 2256,
            "byteOffset" : 50776
        },
        {
            "buffer" : 0,
            "byteLength" : 1692,
            "byteOffset" : 53032
        },
        {
            "buffer" : 0,
            "byteLength" : 1692,
            "byteOffset" : 54724
        },
        {
            "buffer" : 0,
            "byteLength" : 2256,
            "byteOffset" : 56416
        },
        {
            "buffer" : 0,
            "byteLength" : 1692,
            "byteOffset" : 58672
        },
        {
            "buffer" : 0,
            "byteLength" : 1692,
            "byteOffset" : 60364
        },
        {
            "buffer" : 0,
            "byteLength" : 684,
            "byteOffset" : 62056
        },
        {
            "buffer" : 0,
            "byteLength" : 2736,
            "byteOffset" : 62740
        },
        {
            "buffer" : 0,
            "byteLength" : 2052,
            "byteOffset" : 65476
        },
        {
            "buffer" : 0,
            "byteLength" : 2052,
            "byteOffset" : 67528
        },
        {
            "buffer" : 0,
            "byteLength" : 800,
            "byteOffset" : 69580
        },
        {
            "buffer" : 0,
            "byteLength" : 3200,
            "byteOffset" : 70380
        },
        {
            "buffer" : 0,
            "byteLength" : 2400,
            "byteOffset" : 73580
        },
        {
            "buffer" : 0,
            "byteLength" : 2400,
            "byteOffset" : 75980
        }
    ],
    "samplers" : [
        {
            "minFilter" : 9986,
            "wrapT" : 10497,
            "magFilter" : 9729,
            "wrapS" : 10497
        },
        {
            "minFilter" : 9986,
            "wrapT" : 10497,
            "magFilter" : 9729,
            "wrapS" : 10497
        },
        {
            "minFilter" : 9986,
            "wrapT" : 10497,
            "magFilter" : 9729,
            "wrapS" : 10497
        },
        {
            "minFilter" : 9986,
            "wrapT" : 10497,
            "magFilter" : 9729,
            "wrapS" : 10497
        },
        {
            "minFilter" : 9986,
            "wrapT" : 10497,
            "magFilter" : 9729,
            "wrapS" : 10497
        }
    ],
    "buffers" : [
        {
            "uri" : "data:application/octet-stream;base64,",
            "byteLength" : 78380
        }
    ]
}
