{
    "asset" : {
        "generator" : "Khronos glTF Blender I/O v1.2.20",
        "version" : "2.0"
    },
    "scene" : 0,
    "scenes" : [
        {
            "nodes" : [
                0,
                1,
                2,
                3,
                4,
                5
            ],
            "name" : "Scene"
        }
    ],
    "nodes" : [
        {
            "mesh" : 0,
            "translation" : [
                1.746410608291626,
                0.007830634713172913,
                4.406438827514648
            ],
            "scale" : [
                0.015996091067790985,
                0.015996091067790985,
                0.015996091067790985
            ],
            "name" : "1.5"
        },
        {
            "mesh" : 1,
            "translation" : [
                3.8812055587768555,
                0.02290581539273262,
                3.5337390899658203
            ],
            "scale" : [
                0.011029273271560669,
                0.011029273271560669,
                0.011029273271560669
            ],
            "name" : "1.4"
        },
        {
            "mesh" : 2,
            "translation" : [
                2.6136436462402344,
                0.07315611094236374,
                0.2875407934188843
            ],
            "scale" : [
                0.01696845144033432,
                0.01696845144033432,
                0.01696845144033432
            ],
            "name" : "1.3"
        },
        {
            "mesh" : 3,
            "translation" : [
                -0.2409067153930664,
                0.08017440140247345,
                5.798268795013428
            ],
            "scale" : [
                0.017742455005645752,
                0.017742455005645752,
                0.017742455005645752
            ],
            "name" : "1.2"
        },
        {
            "mesh" : 4,
            "translation" : [
                0.18173432350158691,
                0.08708333969116211,
                0.03553277254104614
            ],
            "scale" : [
                0.020075827836990356,
                0.020075827836990356,
                0.020075827836990356
            ],
            "name" : "1.000"
        },
        {
            "translation" : [
                7.481131553649902,
                5.34366512298584,
                6.5076398849487305
            ],
            "name" : "Camera",
            "rotation" : [
                0.483536034822464,
                0.33687159419059753,
                -0.20870360732078552,
                0.7804827094078064
            ]
        }
    ],
    "animations" : [
        {
            "channels" : [
                {
                    "sampler" : 0,
                    "target" : {
                        "node" : 0,
                        "path" : "rotation"
                    }
                },
                {
                    "sampler" : 1,
                    "target" : {
                        "node" : 0,
                        "path" : "scale"
                    }
                },
                {
                    "sampler" : 2,
                    "target" : {
                        "node" : 0,
                        "path" : "translation"
                    }
                }
            ],
            "name" : "1.5Action",
            "samplers" : [
                {
                    "output" : 17,
                    "input" : 16,
                    "interpolation" : "LINEAR"
                },
                {
                    "output" : 18,
                    "input" : 16,
                    "interpolation" : "LINEAR"
                },
                {
                    "output" : 19,
                    "input" : 16,
                    "interpolation" : "LINEAR"
                }
            ]
        },
        {
            "channels" : [
                {
                    "sampler" : 0,
                    "target" : {
                        "node" : 1,
                        "path" : "rotation"
                    }
                },
                {
                    "sampler" : 1,
                    "target" : {
                        "node" : 1,
                        "path" : "scale"
                    }
                },
                {
                    "sampler" : 2,
                    "target" : {
                        "node" : 1,
                        "path" : "translation"
                    }
                }
            ],
            "name" : "1.4Action",
            "samplers" : [
                {
                    "output" : 21,
                    "input" : 20,
                    "interpolation" : "LINEAR"
                },
                {
                    "output" : 22,
                    "input" : 20,
                    "interpolation" : "LINEAR"
                },
                {
                    "output" : 23,
                    "input" : 20,
                    "interpolation" : "LINEAR"
                }
            ]
        },
        {
            "channels" : [
                {
                    "sampler" : 0,
                    "target" : {
                        "node" : 2,
                        "path" : "rotation"
                    }
                },
                {
                    "sampler" : 1,
                    "target" : {
                        "node" : 2,
                        "path" : "scale"
                    }
                },
                {
                    "sampler" : 2,
                    "target" : {
                        "node" : 2,
                        "path" : "translation"
                    }
                }
            ],
            "name" : "1.3Action",
            "samplers" : [
                {
                    "output" : 24,
                    "input" : 20,
                    "interpolation" : "LINEAR"
                },
                {
                    "output" : 25,
                    "input" : 20,
                    "interpolation" : "LINEAR"
                },
                {
                    "output" : 26,
                    "input" : 20,
                    "interpolation" : "LINEAR"
                }
            ]
        },
        {
            "channels" : [
                {
                    "sampler" : 0,
                    "target" : {
                        "node" : 3,
                        "path" : "rotation"
                    }
                },
                {
                    "sampler" : 1,
                    "target" : {
                        "node" : 3,
                        "path" : "scale"
                    }
                },
                {
                    "sampler" : 2,
                    "target" : {
                        "node" : 3,
                        "path" : "translation"
                    }
                }
            ],
            "name" : "1.2Action",
            "samplers" : [
                {
                    "output" : 28,
                    "input" : 27,
                    "interpolation" : "LINEAR"
                },
                {
                    "output" : 29,
                    "input" : 27,
                    "interpolation" : "LINEAR"
                },
                {
                    "output" : 30,
                    "input" : 27,
                    "interpolation" : "LINEAR"
                }
            ]
        },
        {
            "channels" : [
                {
                    "sampler" : 0,
                    "target" : {
                        "node" : 4,
                        "path" : "rotation"
                    }
                },
                {
                    "sampler" : 1,
                    "target" : {
                        "node" : 4,
                        "path" : "scale"
                    }
                },
                {
                    "sampler" : 2,
                    "target" : {
                        "node" : 4,
                        "path" : "translation"
                    }
                }
            ],
            "name" : "1.000Action",
            "samplers" : [
                {
                    "output" : 32,
                    "input" : 31,
                    "interpolation" : "LINEAR"
                },
                {
                    "output" : 33,
                    "input" : 31,
                    "interpolation" : "LINEAR"
                },
                {
                    "output" : 34,
                    "input" : 31,
                    "interpolation" : "LINEAR"
                }
            ]
        }
    ],
    "materials" : [
        {
            "pbrMetallicRoughness" : {
                "baseColorTexture" : {
                    "index" : 0,
                    "texCoord" : 0
                }
            },
            "name" : "Material.002"
        },
        {
            "pbrMetallicRoughness" : {
                "baseColorTexture" : {
                    "index" : 1,
                    "texCoord" : 0
                }
            },
            "name" : "1.4"
        },
        {
            "pbrMetallicRoughness" : {
                "baseColorTexture" : {
                    "index" : 2,
                    "texCoord" : 0
                }
            },
            "name" : "1.3"
        },
        {
            "pbrMetallicRoughness" : {
                "baseColorTexture" : {
                    "index" : 3,
                    "texCoord" : 0
                }
            },
            "name" : "1.2"
        },
        {
            "pbrMetallicRoughness" : {
                "baseColorTexture" : {
                    "index" : 4,
                    "texCoord" : 0
                }
            },
            "name" : "Material.003"
        }
    ],
    "meshes" : [
        {
            "primitives" : [
                {
                    "attributes" : {
                        "POSITION" : 0,
                        "NORMAL" : 1,
                        "TEXCOORD_0" : 2
                    },
                    "material" : 0,
                    "indices" : 3
                }
            ],
            "name" : "1.5"
        },
        {
            "primitives" : [
                {
                    "attributes" : {
                        "POSITION" : 4,
                        "NORMAL" : 5,
                        "TEXCOORD_0" : 6
                    },
                    "material" : 1,
                    "indices" : 3
                }
            ],
            "name" : "1.4"
        },
        {
            "primitives" : [
                {
                    "attributes" : {
                        "POSITION" : 7,
                        "NORMAL" : 8,
                        "TEXCOORD_0" : 9
                    },
                    "material" : 2,
                    "indices" : 3
                }
            ],
            "name" : "1.3"
        },
        {
            "primitives" : [
                {
                    "attributes" : {
                        "POSITION" : 10,
                        "NORMAL" : 11,
                        "TEXCOORD_0" : 12
                    },
                    "material" : 3,
                    "indices" : 3
                }
            ],
            "name" : "1.2"
        },
        {
            "primitives" : [
                {
                    "attributes" : {
                        "POSITION" : 13,
                        "NORMAL" : 14,
                        "TEXCOORD_0" : 15
                    },
                    "material" : 4,
                    "indices" : 3
                }
            ],
            "name" : "1.000"
        }
    ],
    "textures" : [
        {
            "sampler" : 0,
            "source" : 0
        },
        {
            "sampler" : 1,
            "source" : 1
        },
        {
            "sampler" : 2,
            "source" : 2
        },
        {
            "sampler" : 3,
            "source" : 3
        },
        {
            "sampler" : 4,
            "source" : 4
        }
    ],
    "images" : [
        {
            "mimeType" : "image/jpeg",
            "bufferView" : 4,
            "name" : "1.5.png"
        },
        {
            "mimeType" : "image/jpeg",
            "bufferView" : 8,
            "name" : "1.4.png"
        },
        {
            "mimeType" : "image/jpeg",
            "bufferView" : 12,
            "name" : "1.3.png"
        },
        {
            "mimeType" : "image/jpeg",
            "bufferView" : 16,
            "name" : "1.2.png"
        },
        {
            "mimeType" : "image/jpeg",
            "bufferView" : 20,
            "name" : "1.1.png"
        }
    ],
    "accessors" : [
        {
            "count" : 4,
            "componentType" : 5126,
            "min" : [
                -0.3881118893623352,
                0,
                -0.5
            ],
            "max" : [
                0.3881118893623352,
                0,
                0.5
            ],
            "bufferView" : 0,
            "type" : "VEC3"
        },
        {
            "bufferView" : 1,
            "count" : 4,
            "componentType" : 5126,
            "type" : "VEC3"
        },
        {
            "bufferView" : 2,
            "count" : 4,
            "componentType" : 5126,
            "type" : "VEC2"
        },
        {
            "bufferView" : 3,
            "count" : 6,
            "componentType" : 5123,
            "type" : "SCALAR"
        },
        {
            "count" : 4,
            "componentType" : 5126,
            "min" : [
                -0.5271493196487427,
                0,
                -0.5
            ],
            "max" : [
                0.5271493196487427,
                0,
                0.5
            ],
            "bufferView" : 5,
            "type" : "VEC3"
        },
        {
            "bufferView" : 6,
            "count" : 4,
            "componentType" : 5126,
            "type" : "VEC3"
        },
        {
            "bufferView" : 7,
            "count" : 4,
            "componentType" : 5126,
            "type" : "VEC2"
        },
        {
            "count" : 4,
            "componentType" : 5126,
            "min" : [
                -0.4754098355770111,
                0,
                -0.5
            ],
            "max" : [
                0.4754098355770111,
                0,
                0.5
            ],
            "bufferView" : 9,
            "type" : "VEC3"
        },
        {
            "bufferView" : 10,
            "count" : 4,
            "componentType" : 5126,
            "type" : "VEC3"
        },
        {
            "bufferView" : 11,
            "count" : 4,
            "componentType" : 5126,
            "type" : "VEC2"
        },
        {
            "count" : 4,
            "componentType" : 5126,
            "min" : [
                -0.453125,
                0,
                -0.5
            ],
            "max" : [
                0.453125,
                0,
                0.5
            ],
            "bufferView" : 13,
            "type" : "VEC3"
        },
        {
            "bufferView" : 14,
            "count" : 4,
            "componentType" : 5126,
            "type" : "VEC3"
        },
        {
            "bufferView" : 15,
            "count" : 4,
            "componentType" : 5126,
            "type" : "VEC2"
        },
        {
            "count" : 4,
            "componentType" : 5126,
            "min" : [
                -1.376344084739685,
                0,
                -0.5
            ],
            "max" : [
                1.376344084739685,
                0,
                0.5
            ],
            "bufferView" : 17,
            "type" : "VEC3"
        },
        {
            "bufferView" : 18,
            "count" : 4,
            "componentType" : 5126,
            "type" : "VEC3"
        },
        {
            "bufferView" : 19,
            "count" : 4,
            "componentType" : 5126,
            "type" : "VEC2"
        },
        {
            "count" : 81,
            "componentType" : 5126,
            "min" : [
                5
            ],
            "max" : [
                8.333333333333334
            ],
            "bufferView" : 21,
            "type" : "SCALAR"
        },
        {
            "bufferView" : 22,
            "count" : 81,
            "componentType" : 5126,
            "type" : "VEC4"
        },
        {
            "bufferView" : 23,
            "count" : 81,
            "componentType" : 5126,
            "type" : "VEC3"
        },
        {
            "bufferView" : 24,
            "count" : 81,
            "componentType" : 5126,
            "type" : "VEC3"
        },
        {
            "count" : 141,
            "componentType" : 5126,
            "min" : [
                2.5
            ],
            "max" : [
                8.333333333333334
            ],
            "bufferView" : 25,
            "type" : "SCALAR"
        },
        {
            "bufferView" : 26,
            "count" : 141,
            "componentType" : 5126,
            "type" : "VEC4"
        },
        {
            "bufferView" : 27,
            "count" : 141,
            "componentType" : 5126,
            "type" : "VEC3"
        },
        {
            "bufferView" : 28,
            "count" : 141,
            "componentType" : 5126,
            "type" : "VEC3"
        },
        {
            "bufferView" : 29,
            "count" : 141,
            "componentType" : 5126,
            "type" : "VEC4"
        },
        {
            "bufferView" : 30,
            "count" : 141,
            "componentType" : 5126,
            "type" : "VEC3"
        },
        {
            "bufferView" : 31,
            "count" : 141,
            "componentType" : 5126,
            "type" : "VEC3"
        },
        {
            "count" : 171,
            "componentType" : 5126,
            "min" : [
                1.25
            ],
            "max" : [
                8.333333333333334
            ],
            "bufferView" : 32,
            "type" : "SCALAR"
        },
        {
            "bufferView" : 33,
            "count" : 171,
            "componentType" : 5126,
            "type" : "VEC4"
        },
        {
            "bufferView" : 34,
            "count" : 171,
            "componentType" : 5126,
            "type" : "VEC3"
        },
        {
            "bufferView" : 35,
            "count" : 171,
            "componentType" : 5126,
            "type" : "VEC3"
        },
        {
            "count" : 200,
            "componentType" : 5126,
            "min" : [
                0.041666666666666664
            ],
            "max" : [
                8.333333333333334
            ],
            "bufferView" : 36,
            "type" : "SCALAR"
        },
        {
            "bufferView" : 37,
            "count" : 200,
            "componentType" : 5126,
            "type" : "VEC4"
        },
        {
            "bufferView" : 38,
            "count" : 200,
            "componentType" : 5126,
            "type" : "VEC3"
        },
        {
            "bufferView" : 39,
            "count" : 200,
            "componentType" : 5126,
            "type" : "VEC3"
        }
    ],
    "bufferViews" : [
        {
            "buffer" : 0,
            "byteLength" : 48,
            "byteOffset" : 0
        },
        {
            "buffer" : 0,
            "byteLength" : 48,
            "byteOffset" : 48
        },
        {
            "buffer" : 0,
            "byteLength" : 32,
            "byteOffset" : 96
        },
        {
            "buffer" : 0,
            "byteLength" : 12,
            "byteOffset" : 128
        },
        {
            "buffer" : 0,
            "byteLength" : 3636,
            "byteOffset" : 140
        },
        {
            "buffer" : 0,
            "byteLength" : 48,
            "byteOffset" : 3776
        },
        {
            "buffer" : 0,
            "byteLength" : 48,
            "byteOffset" : 3824
        },
        {
            "buffer" : 0,
            "byteLength" : 32,
            "byteOffset" : 3872
        },
        {
            "buffer" : 0,
            "byteLength" : 5407,
            "byteOffset" : 3904
        },
        {
            "buffer" : 0,
            "byteLength" : 48,
            "byteOffset" : 9312
        },
        {
            "buffer" : 0,
            "byteLength" : 48,
            "byteOffset" : 9360
        },
        {
            "buffer" : 0,
            "byteLength" : 32,
            "byteOffset" : 9408
        },
        {
            "buffer" : 0,
            "byteLength" : 19270,
            "byteOffset" : 9440
        },
        {
            "buffer" : 0,
            "byteLength" : 48,
            "byteOffset" : 28712
        },
        {
            "buffer" : 0,
            "byteLength" : 48,
            "byteOffset" : 28760
        },
        {
            "buffer" : 0,
            "byteLength" : 32,
            "byteOffset" : 28808
        },
        {
            "buffer" : 0,
            "byteLength" : 9428,
            "byteOffset" : 28840
        },
        {
            "buffer" : 0,
            "byteLength" : 48,
            "byteOffset" : 38268
        },
        {
            "buffer" : 0,
            "byteLength" : 48,
            "byteOffset" : 38316
        },
        {
            "buffer" : 0,
            "byteLength" : 32,
            "byteOffset" : 38364
        },
        {
            "buffer" : 0,
            "byteLength" : 8652,
            "byteOffset" : 38396
        },
        {
            "buffer" : 0,
            "byteLength" : 324,
            "byteOffset" : 47048
        },
        {
            "buffer" : 0,
            "byteLength" : 1296,
            "byteOffset" : 47372
        },
        {
            "buffer" : 0,
            "byteLength" : 972,
            "byteOffset" : 48668
        },
        {
            "buffer" : 0,
            "byteLength" : 972,
            "byteOffset" : 49640
        },
        {
            "buffer" : 0,
            "byteLength" : 564,
            "byteOffset" : 50612
        },
        {
            "buffer" : 0,
            "byteLength" : 2256,
            "byteOffset" : 51176
        },
        {
            "buffer" : 0,
            "byteLength" : 1692,
            "byteOffset" : 53432
        },
        {
            "buffer" : 0,
            "byteLength" : 1692,
            "byteOffset" : 55124
        },
        {
            "buffer" : 0,
            "byteLength" : 2256,
            "byteOffset" : 56816
        },
        {
            "buffer" : 0,
            "byteLength" : 1692,
            "byteOffset" : 59072
        },
        {
            "buffer" : 0,
            "byteLength" : 1692,
            "byteOffset" : 60764
        },
        {
            "buffer" : 0,
            "byteLength" : 684,
            "byteOffset" : 62456
        },
        {
            "buffer" : 0,
            "byteLength" : 2736,
            "byteOffset" : 63140
        },
        {
            "buffer" : 0,
            "byteLength" : 2052,
            "byteOffset" : 65876
        },
        {
            "buffer" : 0,
            "byteLength" : 2052,
            "byteOffset" : 67928
        },
        {
            "buffer" : 0,
            "byteLength" : 800,
            "byteOffset" : 69980
        },
        {
            "buffer" : 0,
            "byteLength" : 3200,
            "byteOffset" : 70780
        },
        {
            "buffer" : 0,
            "byteLength" : 2400,
            "byteOffset" : 73980
        },
        {
            "buffer" : 0,
            "byteLength" : 2400,
            "byteOffset" : 76380
        }
    ],
    "samplers" : [
        {
            "minFilter" : 9986,
            "wrapT" : 10497,
            "magFilter" : 9729,
            "wrapS" : 10497
        },
        {
            "minFilter" : 9986,
            "wrapT" : 10497,
            "magFilter" : 9729,
            "wrapS" : 10497
        },
        {
            "minFilter" : 9986,
            "wrapT" : 10497,
            "magFilter" : 9729,
            "wrapS" : 10497
        },
        {
            "minFilter" : 9986,
            "wrapT" : 10497,
            "magFilter" : 9729,
            "wrapS" : 10497
        },
        {
            "minFilter" : 9986,
            "wrapT" : 10497,
            "magFilter" : 9729,
            "wrapS" : 10497
        }
    ],
    "buffers" : [
        {
            "uri" : "data:application/octet-stream;base64,",
            "byteLength" : 78780
        }
    ]
}
