{
    "asset": {
        "generator": "COLLADA2GLTF",
        "version": "2.0"
    },
    "scenes": [
        {
            "nodes": [
                0
            ]
        }
    ],
    "scene": 0,
    "nodes": [
        {
            "children": [
                7,
                2,
                1
            ],
            "matrix": [
                1.0,
                0.0,
                0.0,
                0.0,
                0.0,
                0.0,
                -1.0,
                0.0,
                0.0,
                1.0,
                0.0,
                0.0,
                0.0,
                0.0,
                0.0,
                1.0
            ],
            "name": "Z_UP"
        },
        {
            "matrix": [
                0.6859207153320313,
                0.727676272392273,
                -4.0113250499018708e-9,
                0.0,
                -0.3240133821964264,
                0.305420845746994,
                0.8953956961631775,
                0.0,
                0.6515582203865051,
                -0.6141704320907593,
                0.4452713429927826,
                0.0,
                7.4811320304870609,
                -6.507639884948731,
                5.34366512298584,
                1.0
            ],
            "camera": 0,
            "name": "Camera_001"
        },
        {
            "children": [
                3
            ],
            "translation": [
                3.146127939224243,
                -0.006177777890115976,
                0.39720290899276736
            ],
            "rotation": [
                -0.0,
                -0.0,
                -0.0,
                -1.0
            ]
        },
        {
            "children": [
                4
            ],
            "rotation": [
                -0.0,
                -0.0,
                -0.0,
                -1.0
            ]
        },
        {
            "children": [
                5
            ],
            "rotation": [
                -0.0,
                -0.0,
                -0.0,
                -1.0
            ]
        },
        {
            "children": [
                6
            ],
            "rotation": [
                -0.0,
                -0.0,
                -0.0,
                -1.0
            ]
        },
        {
            "mesh": 0,
            "rotation": [
                -0.0,
                -0.0,
                -0.0,
                -0.7097588181495667
            ],
            "scale": [
                0.33834341168403628,
                0.33834341168403628,
                0.33834341168403628
            ],
            "name": "nairobi_art"
        },
        {
            "matrix": [
                0.6859207153320313,
                0.727676272392273,
                0.0,
                0.0,
                -0.3240133821964264,
                0.305420845746994,
                0.8953956961631775,
                0.0,
                0.6515582203865051,
                -0.6141704320907593,
                0.4452713429927826,
                0.0,
                7.4811320304870609,
                -6.507639884948731,
                5.34366512298584,
                1.0
            ],
            "camera": 1,
            "name": "Camera"
        }
    ],
    "cameras": [
        {
            "perspective": {
                "yfov": 0.4823747575283051,
                "zfar": 100.0,
                "znear": 0.10000000149011612
            },
            "type": "perspective",
            "name": "Camera.001"
        },
        {
            "perspective": {
                "yfov": 0.4823747575283051,
                "zfar": 100.0,
                "znear": 0.10000000149011612
            },
            "type": "perspective",
            "name": "Camera"
        }
    ],
    "meshes": [
        {
            "primitives": [
                {
                    "attributes": {
                        "NORMAL": 1,
                        "POSITION": 2,
                        "TEXCOORD_0": 3
                    },
                    "indices": 0,
                    "mode": 4,
                    "material": 0
                }
            ],
            "name": "nairobi art"
        }
    ],
    "animations": [
        {
            "channels": [
                {
                    "sampler": 0,
                    "target": {
                        "node": 2,
                        "path": "translation"
                    }
                },
                {
                    "sampler": 1,
                    "target": {
                        "node": 5,
                        "path": "rotation"
                    }
                },
                {
                    "sampler": 2,
                    "target": {
                        "node": 4,
                        "path": "rotation"
                    }
                },
                {
                    "sampler": 3,
                    "target": {
                        "node": 3,
                        "path": "rotation"
                    }
                },
                {
                    "sampler": 4,
                    "target": {
                        "node": 6,
                        "path": "translation"
                    }
                }
            ],
            "samplers": [
                {
                    "input": 4,
                    "interpolation": "LINEAR",
                    "output": 5
                },
                {
                    "input": 6,
                    "interpolation": "LINEAR",
                    "output": 7
                },
                {
                    "input": 8,
                    "interpolation": "LINEAR",
                    "output": 9
                },
                {
                    "input": 10,
                    "interpolation": "LINEAR",
                    "output": 11
                },
                {
                    "input": 12,
                    "interpolation": "LINEAR",
                    "output": 13
                }
            ]
        }
    ],
    "accessors": [
        {
            "bufferView": 0,
            "byteOffset": 0,
            "componentType": 5123,
            "count": 6,
            "max": [
                3
            ],
            "min": [
                0
            ],
            "type": "SCALAR"
        },
        {
            "bufferView": 1,
            "byteOffset": 0,
            "componentType": 5126,
            "count": 4,
            "max": [
                0.0,
                0.0,
                1.0
            ],
            "min": [
                0.0,
                0.0,
                1.0
            ],
            "type": "VEC3"
        },
        {
            "bufferView": 1,
            "byteOffset": 48,
            "componentType": 5126,
            "count": 4,
            "max": [
                0.4946736991405487,
                0.5,
                0.0
            ],
            "min": [
                -0.4946736991405487,
                -0.5,
                0.0
            ],
            "type": "VEC3"
        },
        {
            "bufferView": 2,
            "byteOffset": 0,
            "componentType": 5126,
            "count": 4,
            "max": [
                1.0,
                1.0
            ],
            "min": [
                0.0,
                0.0
            ],
            "type": "VEC2"
        },
        {
            "bufferView": 3,
            "byteOffset": 0,
            "componentType": 5126,
            "count": 3,
            "max": [
                10.083330154418946
            ],
            "min": [
                0.04166661947965622
            ],
            "type": "SCALAR"
        },
        {
            "bufferView": 4,
            "byteOffset": 0,
            "componentType": 5126,
            "count": 3,
            "max": [
                3.427954912185669,
                0.4157803952693939,
                3.2425460815429689
            ],
            "min": [
                0.017211789265275,
                -0.05867110937833786,
                0.04323035106062889
            ],
            "type": "VEC3"
        },
        {
            "bufferView": 3,
            "byteOffset": 12,
            "componentType": 5126,
            "count": 3,
            "max": [
                10.083330154418946
            ],
            "min": [
                0.04166661947965622
            ],
            "type": "SCALAR"
        },
        {
            "bufferView": 5,
            "byteOffset": 0,
            "componentType": 5126,
            "count": 3,
            "max": [
                -0.0,
                -0.0,
                -0.0,
                -1.0
            ],
            "min": [
                -0.0,
                -0.0,
                -0.0,
                -1.0
            ],
            "type": "VEC4"
        },
        {
            "bufferView": 3,
            "byteOffset": 24,
            "componentType": 5126,
            "count": 3,
            "max": [
                10.083330154418946
            ],
            "min": [
                0.04166661947965622
            ],
            "type": "SCALAR"
        },
        {
            "bufferView": 5,
            "byteOffset": 48,
            "componentType": 5126,
            "count": 3,
            "max": [
                -0.0,
                -0.0,
                -0.0,
                -1.0
            ],
            "min": [
                -0.0,
                -0.0,
                -0.0,
                -1.0
            ],
            "type": "VEC4"
        },
        {
            "bufferView": 3,
            "byteOffset": 36,
            "componentType": 5126,
            "count": 3,
            "max": [
                10.083330154418946
            ],
            "min": [
                0.04166661947965622
            ],
            "type": "SCALAR"
        },
        {
            "bufferView": 5,
            "byteOffset": 96,
            "componentType": 5126,
            "count": 3,
            "max": [
                -0.0,
                -0.0,
                -0.0,
                -1.0
            ],
            "min": [
                -0.0,
                -0.0,
                -0.0,
                -1.0
            ],
            "type": "VEC4"
        },
        {
            "bufferView": 3,
            "byteOffset": 48,
            "componentType": 5126,
            "count": 3,
            "max": [
                10.083330154418946
            ],
            "min": [
                0.04166661947965622
            ],
            "type": "SCALAR"
        },
        {
            "bufferView": 4,
            "byteOffset": 36,
            "componentType": 5126,
            "count": 3,
            "max": [
                1.0,
                1.0,
                1.0
            ],
            "min": [
                0.30244529247283938,
                0.30244529247283938,
                0.30244529247283938
            ],
            "type": "VEC3"
        }
    ],
    "materials": [
        {
            "pbrMetallicRoughness": {
                "baseColorTexture": {
                    "index": 0
                },
                "metallicFactor": 0.0
            },
            "emissiveFactor": [
                0.0,
                0.0,
                0.0
            ],
            "name": "nairobi_art-effect"
        }
    ],
    "textures": [
        {
            "sampler": 0,
            "source": 0
        }
    ],
    "images": [
        {
            "uri": "data:image/png;base64,"
        }
    ],
    "samplers": [
        {
            "magFilter": 9729,
            "minFilter": 9986,
            "wrapS": 10497,
            "wrapT": 10497
        }
    ],
    "bufferViews": [
        {
            "buffer": 0,
            "byteOffset": 404,
            "byteLength": 12,
            "target": 34963
        },
        {
            "buffer": 0,
            "byteOffset": 216,
            "byteLength": 96,
            "byteStride": 12,
            "target": 34962
        },
        {
            "buffer": 0,
            "byteOffset": 312,
            "byteLength": 32,
            "byteStride": 8,
            "target": 34962
        },
        {
            "buffer": 0,
            "byteOffset": 344,
            "byteLength": 60
        },
        {
            "buffer": 0,
            "byteOffset": 144,
            "byteLength": 72
        },
        {
            "buffer": 0,
            "byteOffset": 0,
            "byteLength": 144
        }
    ],
    "buffers": [
        {
            "byteLength": 416,
            "uri": "data:application/octet-stream;base64,"
        }
    ]
}
