{
    "asset" : {
        "generator" : "Khronos glTF Blender I/O v1.2.20",
        "version" : "2.0"
    },
    "scene" : 0,
    "scenes" : [
        {
            "nodes" : [
                0,
                1,
                2,
                3,
                4,
                5,
                6
            ],
            "name" : "Scene"
        }
    ],
    "nodes" : [
        {
            "mesh" : 0,
            "translation" : [
                1.746410608291626,
                0.007830634713172913,
                4.406438827514648
            ],
            "scale" : [
                0.015996091067790985,
                0.015996091067790985,
                0.015996091067790985
            ],
            "name" : "1.5"
        },
        {
            "mesh" : 1,
            "translation" : [
                3.8812055587768555,
                0.02290581539273262,
                3.5337390899658203
            ],
            "scale" : [
                0.011029273271560669,
                0.011029273271560669,
                0.011029273271560669
            ],
            "name" : "1.4"
        },
        {
            "mesh" : 2,
            "translation" : [
                2.6136436462402344,
                0.07315611094236374,
                0.2875407934188843
            ],
            "scale" : [
                0.01696845144033432,
                0.01696845144033432,
                0.01696845144033432
            ],
            "name" : "1.3"
        },
        {
            "mesh" : 3,
            "translation" : [
                -0.2409067153930664,
                0.08017440140247345,
                5.798268795013428
            ],
            "scale" : [
                0.017742455005645752,
                0.017742455005645752,
                0.017742455005645752
            ],
            "name" : "1.2"
        },
        {
            "mesh" : 4,
            "translation" : [
                0.18173432350158691,
                0.08708333969116211,
                0.03553277254104614
            ],
            "scale" : [
                0.020075827836990356,
                0.020075827836990356,
                0.020075827836990356
            ],
            "name" : "1.000"
        },
        {
            "translation" : [
                4.076245307922363,
                5.903861999511719,
                -1.0054539442062378
            ],
            "name" : "Lamp",
            "rotation" : [
                0.16907575726509094,
                0.7558803558349609,
                -0.27217137813568115,
                0.570947527885437
            ]
        },
        {
            "translation" : [
                7.481131553649902,
                5.34366512298584,
                6.5076398849487305
            ],
            "name" : "Camera",
            "rotation" : [
                0.483536034822464,
                0.33687159419059753,
                -0.20870360732078552,
                0.7804827094078064
            ]
        }
    ],
    "animations" : [
        {
            "channels" : [
                {
                    "sampler" : 0,
                    "target" : {
                        "node" : 0,
                        "path" : "rotation"
                    }
                },
                {
                    "sampler" : 1,
                    "target" : {
                        "node" : 0,
                        "path" : "scale"
                    }
                },
                {
                    "sampler" : 2,
                    "target" : {
                        "node" : 0,
                        "path" : "translation"
                    }
                }
            ],
            "name" : "1.5Action",
            "samplers" : [
                {
                    "output" : 4,
                    "input" : 3,
                    "interpolation" : "LINEAR"
                },
                {
                    "output" : 5,
                    "input" : 3,
                    "interpolation" : "LINEAR"
                },
                {
                    "output" : 6,
                    "input" : 3,
                    "interpolation" : "LINEAR"
                }
            ]
        },
        {
            "channels" : [
                {
                    "sampler" : 0,
                    "target" : {
                        "node" : 1,
                        "path" : "rotation"
                    }
                },
                {
                    "sampler" : 1,
                    "target" : {
                        "node" : 1,
                        "path" : "scale"
                    }
                },
                {
                    "sampler" : 2,
                    "target" : {
                        "node" : 1,
                        "path" : "translation"
                    }
                }
            ],
            "name" : "1.4Action",
            "samplers" : [
                {
                    "output" : 8,
                    "input" : 7,
                    "interpolation" : "LINEAR"
                },
                {
                    "output" : 9,
                    "input" : 7,
                    "interpolation" : "LINEAR"
                },
                {
                    "output" : 10,
                    "input" : 7,
                    "interpolation" : "LINEAR"
                }
            ]
        },
        {
            "channels" : [
                {
                    "sampler" : 0,
                    "target" : {
                        "node" : 2,
                        "path" : "rotation"
                    }
                },
                {
                    "sampler" : 1,
                    "target" : {
                        "node" : 2,
                        "path" : "scale"
                    }
                },
                {
                    "sampler" : 2,
                    "target" : {
                        "node" : 2,
                        "path" : "translation"
                    }
                }
            ],
            "name" : "1.3Action",
            "samplers" : [
                {
                    "output" : 11,
                    "input" : 7,
                    "interpolation" : "LINEAR"
                },
                {
                    "output" : 12,
                    "input" : 7,
                    "interpolation" : "LINEAR"
                },
                {
                    "output" : 13,
                    "input" : 7,
                    "interpolation" : "LINEAR"
                }
            ]
        },
        {
            "channels" : [
                {
                    "sampler" : 0,
                    "target" : {
                        "node" : 3,
                        "path" : "rotation"
                    }
                },
                {
                    "sampler" : 1,
                    "target" : {
                        "node" : 3,
                        "path" : "scale"
                    }
                },
                {
                    "sampler" : 2,
                    "target" : {
                        "node" : 3,
                        "path" : "translation"
                    }
                }
            ],
            "name" : "1.2Action",
            "samplers" : [
                {
                    "output" : 15,
                    "input" : 14,
                    "interpolation" : "LINEAR"
                },
                {
                    "output" : 16,
                    "input" : 14,
                    "interpolation" : "LINEAR"
                },
                {
                    "output" : 17,
                    "input" : 14,
                    "interpolation" : "LINEAR"
                }
            ]
        },
        {
            "channels" : [
                {
                    "sampler" : 0,
                    "target" : {
                        "node" : 4,
                        "path" : "rotation"
                    }
                },
                {
                    "sampler" : 1,
                    "target" : {
                        "node" : 4,
                        "path" : "scale"
                    }
                },
                {
                    "sampler" : 2,
                    "target" : {
                        "node" : 4,
                        "path" : "translation"
                    }
                }
            ],
            "name" : "1.000Action",
            "samplers" : [
                {
                    "output" : 19,
                    "input" : 18,
                    "interpolation" : "LINEAR"
                },
                {
                    "output" : 20,
                    "input" : 18,
                    "interpolation" : "LINEAR"
                },
                {
                    "output" : 21,
                    "input" : 18,
                    "interpolation" : "LINEAR"
                }
            ]
        }
    ],
    "materials" : [
        {
            "pbrMetallicRoughness" : {
                "baseColorTexture" : {
                    "index" : 0,
                    "texCoord" : 0
                }
            },
            "name" : "1.5"
        },
        {
            "pbrMetallicRoughness" : {
                "baseColorTexture" : {
                    "index" : 1,
                    "texCoord" : 0
                }
            },
            "name" : "1.4"
        },
        {
            "pbrMetallicRoughness" : {
                "baseColorTexture" : {
                    "index" : 2,
                    "texCoord" : 0
                }
            },
            "name" : "1.3"
        },
        {
            "pbrMetallicRoughness" : {
                "baseColorTexture" : {
                    "index" : 3,
                    "texCoord" : 0
                }
            },
            "name" : "1.2"
        },
        {
            "pbrMetallicRoughness" : {
                "baseColorTexture" : {
                    "index" : 4,
                    "texCoord" : 0
                }
            },
            "name" : "Material.003"
        }
    ],
    "meshes" : [
        {
            "primitives" : [
                {
                    "attributes" : {
                        "POSITION" : 0,
                        "NORMAL" : 1
                    },
                    "material" : 0,
                    "indices" : 2
                }
            ],
            "name" : "1.001"
        },
        {
            "primitives" : [
                {
                    "attributes" : {
                        "POSITION" : 0,
                        "NORMAL" : 1
                    },
                    "material" : 1,
                    "indices" : 2
                }
            ],
            "name" : "1.001"
        },
        {
            "primitives" : [
                {
                    "attributes" : {
                        "POSITION" : 0,
                        "NORMAL" : 1
                    },
                    "material" : 2,
                    "indices" : 2
                }
            ],
            "name" : "1.001"
        },
        {
            "primitives" : [
                {
                    "attributes" : {
                        "POSITION" : 0,
                        "NORMAL" : 1
                    },
                    "material" : 3,
                    "indices" : 2
                }
            ],
            "name" : "1.001"
        },
        {
            "primitives" : [
                {
                    "attributes" : {
                        "POSITION" : 0,
                        "NORMAL" : 1
                    },
                    "material" : 4,
                    "indices" : 2
                }
            ],
            "name" : "1.001"
        }
    ],
    "textures" : [
        {
            "sampler" : 0,
            "source" : 0
        },
        {
            "sampler" : 1,
            "source" : 1
        },
        {
            "sampler" : 2,
            "source" : 2
        },
        {
            "sampler" : 3,
            "source" : 3
        },
        {
            "sampler" : 4,
            "source" : 4
        }
    ],
    "images" : [
        {
            "mimeType" : "image/png",
            "bufferView" : 3,
            "name" : "1.5.png"
        },
        {
            "mimeType" : "image/png",
            "bufferView" : 4,
            "name" : "1.4.png"
        },
        {
            "mimeType" : "image/png",
            "bufferView" : 5,
            "name" : "1.3.png"
        },
        {
            "mimeType" : "image/png",
            "bufferView" : 6,
            "name" : "1.2.png"
        },
        {
            "mimeType" : "image/png",
            "bufferView" : 7,
            "name" : "1.1.png"
        }
    ],
    "accessors" : [
        {
            "count" : 4,
            "componentType" : 5126,
            "min" : [
                -0.3881118893623352,
                0,
                -0.5
            ],
            "max" : [
                0.3881118893623352,
                0,
                0.5
            ],
            "bufferView" : 0,
            "type" : "VEC3"
        },
        {
            "bufferView" : 1,
            "count" : 4,
            "componentType" : 5126,
            "type" : "VEC3"
        },
        {
            "bufferView" : 2,
            "count" : 6,
            "componentType" : 5123,
            "type" : "SCALAR"
        },
        {
            "count" : 81,
            "componentType" : 5126,
            "min" : [
                5
            ],
            "max" : [
                8.333333333333334
            ],
            "bufferView" : 8,
            "type" : "SCALAR"
        },
        {
            "bufferView" : 9,
            "count" : 81,
            "componentType" : 5126,
            "type" : "VEC4"
        },
        {
            "bufferView" : 10,
            "count" : 81,
            "componentType" : 5126,
            "type" : "VEC3"
        },
        {
            "bufferView" : 11,
            "count" : 81,
            "componentType" : 5126,
            "type" : "VEC3"
        },
        {
            "count" : 141,
            "componentType" : 5126,
            "min" : [
                2.5
            ],
            "max" : [
                8.333333333333334
            ],
            "bufferView" : 12,
            "type" : "SCALAR"
        },
        {
            "bufferView" : 13,
            "count" : 141,
            "componentType" : 5126,
            "type" : "VEC4"
        },
        {
            "bufferView" : 14,
            "count" : 141,
            "componentType" : 5126,
            "type" : "VEC3"
        },
        {
            "bufferView" : 15,
            "count" : 141,
            "componentType" : 5126,
            "type" : "VEC3"
        },
        {
            "bufferView" : 16,
            "count" : 141,
            "componentType" : 5126,
            "type" : "VEC4"
        },
        {
            "bufferView" : 17,
            "count" : 141,
            "componentType" : 5126,
            "type" : "VEC3"
        },
        {
            "bufferView" : 18,
            "count" : 141,
            "componentType" : 5126,
            "type" : "VEC3"
        },
        {
            "count" : 171,
            "componentType" : 5126,
            "min" : [
                1.25
            ],
            "max" : [
                8.333333333333334
            ],
            "bufferView" : 19,
            "type" : "SCALAR"
        },
        {
            "bufferView" : 20,
            "count" : 171,
            "componentType" : 5126,
            "type" : "VEC4"
        },
        {
            "bufferView" : 21,
            "count" : 171,
            "componentType" : 5126,
            "type" : "VEC3"
        },
        {
            "bufferView" : 22,
            "count" : 171,
            "componentType" : 5126,
            "type" : "VEC3"
        },
        {
            "count" : 200,
            "componentType" : 5126,
            "min" : [
                0.041666666666666664
            ],
            "max" : [
                8.333333333333334
            ],
            "bufferView" : 23,
            "type" : "SCALAR"
        },
        {
            "bufferView" : 24,
            "count" : 200,
            "componentType" : 5126,
            "type" : "VEC4"
        },
        {
            "bufferView" : 25,
            "count" : 200,
            "componentType" : 5126,
            "type" : "VEC3"
        },
        {
            "bufferView" : 26,
            "count" : 200,
            "componentType" : 5126,
            "type" : "VEC3"
        }
    ],
    "bufferViews" : [
        {
            "buffer" : 0,
            "byteLength" : 48,
            "byteOffset" : 0
        },
        {
            "buffer" : 0,
            "byteLength" : 48,
            "byteOffset" : 48
        },
        {
            "buffer" : 0,
            "byteLength" : 12,
            "byteOffset" : 96
        },
        {
            "buffer" : 0,
            "byteLength" : 4493,
            "byteOffset" : 108
        },
        {
            "buffer" : 0,
            "byteLength" : 8851,
            "byteOffset" : 4604
        },
        {
            "buffer" : 0,
            "byteLength" : 82046,
            "byteOffset" : 13456
        },
        {
            "buffer" : 0,
            "byteLength" : 10189,
            "byteOffset" : 95504
        },
        {
            "buffer" : 0,
            "byteLength" : 21498,
            "byteOffset" : 105696
        },
        {
            "buffer" : 0,
            "byteLength" : 324,
            "byteOffset" : 127196
        },
        {
            "buffer" : 0,
            "byteLength" : 1296,
            "byteOffset" : 127520
        },
        {
            "buffer" : 0,
            "byteLength" : 972,
            "byteOffset" : 128816
        },
        {
            "buffer" : 0,
            "byteLength" : 972,
            "byteOffset" : 129788
        },
        {
            "buffer" : 0,
            "byteLength" : 564,
            "byteOffset" : 130760
        },
        {
            "buffer" : 0,
            "byteLength" : 2256,
            "byteOffset" : 131324
        },
        {
            "buffer" : 0,
            "byteLength" : 1692,
            "byteOffset" : 133580
        },
        {
            "buffer" : 0,
            "byteLength" : 1692,
            "byteOffset" : 135272
        },
        {
            "buffer" : 0,
            "byteLength" : 2256,
            "byteOffset" : 136964
        },
        {
            "buffer" : 0,
            "byteLength" : 1692,
            "byteOffset" : 139220
        },
        {
            "buffer" : 0,
            "byteLength" : 1692,
            "byteOffset" : 140912
        },
        {
            "buffer" : 0,
            "byteLength" : 684,
            "byteOffset" : 142604
        },
        {
            "buffer" : 0,
            "byteLength" : 2736,
            "byteOffset" : 143288
        },
        {
            "buffer" : 0,
            "byteLength" : 2052,
            "byteOffset" : 146024
        },
        {
            "buffer" : 0,
            "byteLength" : 2052,
            "byteOffset" : 148076
        },
        {
            "buffer" : 0,
            "byteLength" : 800,
            "byteOffset" : 150128
        },
        {
            "buffer" : 0,
            "byteLength" : 3200,
            "byteOffset" : 150928
        },
        {
            "buffer" : 0,
            "byteLength" : 2400,
            "byteOffset" : 154128
        },
        {
            "buffer" : 0,
            "byteLength" : 2400,
            "byteOffset" : 156528
        }
    ],
    "samplers" : [
        {
            "minFilter" : 9986,
            "wrapT" : 10497,
            "magFilter" : 9729,
            "wrapS" : 10497
        },
        {
            "minFilter" : 9986,
            "wrapT" : 10497,
            "magFilter" : 9729,
            "wrapS" : 10497
        },
        {
            "minFilter" : 9986,
            "wrapT" : 10497,
            "magFilter" : 9729,
            "wrapS" : 10497
        },
        {
            "minFilter" : 9986,
            "wrapT" : 10497,
            "magFilter" : 9729,
            "wrapS" : 10497
        },
        {
            "minFilter" : 9986,
            "wrapT" : 10497,
            "magFilter" : 9729,
            "wrapS" : 10497
        }
    ],
    "buffers" : [
        {
            "uri" : "data:application/octet-stream;base64,",
            "byteLength" : 158928
        }
    ]
}
