{"accessors" : [{"bufferView" : 0, "byteOffset" : 0, "componentType" : 5123, "count" : 36, "type" : "SCALAR", "max" : [31], "min" : [0]}, {"bufferView" : 1, "byteOffset" : 0, "componentType" : 5126, "count" : 32, "type" : "VEC3", "max" : [1, 1, 1], "min" : [-1, -1.00000095367432, -1]}, {"bufferView" : 1, "byteOffset" : 12, "componentType" : 5126, "count" : 32, "type" : "VEC3", "max" : [1.00000441074371, 1.00000441074371, 1.00000441074371], "min" : [-1.00000441074371, -1.00000441074371, -1.00000441074371]}], "asset" : {"generator" : "Aspose.3D 20.2.1", "version" : "2.0"}, "buffers" : [{"uri" : "buffer.bin", "byteLength" : 848}], "bufferViews" : [{"buffer" : 0, "byteOffset" : 0, "byteLength" : 72, "target" : 34963}, {"buffer" : 0, "byteOffset" : 76, "byteLength" : 768, "byteStride" : 24, "target" : 34962}], "cameras" : [{"perspective" : {"aspectRatio" : 1.777778, "yfov" : 0.857556008794351, "zfar" : 100, "znear" : 0.1}, "type" : "perspective"}], "materials" : [{"pbrMetallicRoughness" : {"baseColorFactor" : [0.64, 0.64, 0.64, 1], "metallicFactor" : 0, "roughnessFactor" : 0}, "emissiveFactor" : [0, 0, 0], "alphaMode" : "OPAQUE", "doubleSided" : false}], "meshes" : [{"primitives" : [{"attributes" : {"POSITION" : 1, "NORMAL" : 2}, "indices" : 0, "material" : 0, "mode" : 4}]}], "nodes" : [{"camera" : 0, "matrix" : [0.685920724509663, 0.727676273962632, 0, 0, -0.324013385889004, 0.305420836644218, 0.895395688122458, 0, 0.651558198055157, -0.614170459119784, 0.445271334909076, 0, 7.481132, -6.50764, 5.343665, 1], "name" : "Camera"}, {"mesh" : 0, "name" : "Cube"}], "scene" : 0, "scenes" : [{"nodes" : [0, 1]}]}